<?xml version="1.0" standalone="no"?>
<!DOCTYPE svg PUBLIC "-//W3C//DTD SVG 20010904//EN"
 "http://www.w3.org/TR/2001/REC-SVG-20010904/DTD/svg10.dtd">
<svg version="1.0" xmlns="http://www.w3.org/2000/svg"
 width="1052.000000pt" height="1052.000000pt" viewBox="0 0 1052.000000 1052.000000"
 preserveAspectRatio="xMidYMid meet">
<metadata>
Created by potrace 1.11, written by Peter Selinger 2001-2013
</metadata>
<g transform="translate(0.000000,1052.000000) scale(0.100000,-0.100000)"
fill="#000000" stroke="none">
<path d="M0 5260 l0 -5260 5260 0 5260 0 0 5260 0 5260 -5260 0 -5260 0 0
-5260z m2210 3581 c264 -56 438 -180 553 -391 74 -136 107 -307 107 -556 l0
-174 -377 2 -378 3 -6 200 c-6 163 -11 212 -28 265 -33 103 -87 144 -191 143
-176 -1 -228 -111 -251 -543 -16 -275 -5 -1048 16 -1199 34 -244 92 -322 240
-323 169 -1 220 115 232 520 l6 212 385 0 385 0 -7 -199 c-8 -241 -25 -363
-70 -493 -46 -134 -114 -244 -207 -333 -172 -164 -373 -227 -729 -227 -272 0
-437 29 -596 106 -261 126 -393 378 -449 861 -22 189 -32 762 -16 961 41 514
123 759 320 954 68 68 104 95 172 128 92 46 236 86 357 101 126 16 421 5 532
-18z m1572 -523 l3 -491 36 54 c81 121 179 191 329 234 83 24 264 25 364 1
196 -46 322 -178 376 -390 19 -76 20 -111 20 -1008 l0 -928 -380 0 -379 0 -3
823 -3 822 -22 48 c-17 38 -31 52 -65 67 -98 44 -209 14 -250 -68 l-23 -47 -3
-822 -3 -823 -379 0 -380 0 0 1510 0 1510 380 0 380 0 2 -492z m2088 -1018 l0
-1510 -385 0 -385 0 0 1510 0 1510 385 0 385 0 0 -1510z m1259 830 c212 -19
362 -70 490 -166 84 -63 146 -141 197 -249 90 -190 118 -398 111 -825 -6 -397
-31 -534 -135 -734 -71 -139 -180 -244 -331 -321 -229 -116 -765 -118 -1017
-5 -147 66 -259 170 -325 301 -99 197 -123 350 -123 784 -1 421 24 578 125
782 164 334 500 478 1008 433z m2106 -19 c184 -37 290 -94 400 -213 159 -172
223 -405 232 -845 l6 -243 -568 0 -567 0 4 -222 c3 -220 3 -224 30 -278 36
-73 82 -103 165 -108 54 -4 69 -1 108 22 74 44 115 153 115 309 l0 57 345 0
c322 0 345 -1 345 -17 -1 -122 -52 -348 -101 -447 -132 -264 -377 -379 -809
-378 -195 0 -328 17 -449 58 -116 39 -169 72 -256 159 -126 125 -190 275 -231
540 -16 98 -19 176 -19 425 0 269 3 320 23 431 85 492 307 717 760 769 121 14
353 5 467 -19z m-2554 -4163 l254 -932 3 932 2 932 370 0 370 0 0 -1510 0
-1510 -432 0 -433 0 -259 923 c-142 507 -262 926 -267 932 -5 5 -9 -382 -9
-923 l0 -932 -365 0 -365 0 0 1510 0 1510 438 0 439 0 254 -932z m1989 236
c169 -50 255 -135 338 -334 8 -19 11 15 11 138 l1 162 355 0 355 0 0 -1185 c0
-1042 -2 -1195 -16 -1262 -71 -346 -291 -533 -698 -593 -43 -7 -156 -12 -250
-12 -356 1 -576 64 -717 204 -94 95 -158 252 -159 391 l0 47 339 0 339 0 7
-37 c10 -53 34 -91 75 -116 29 -18 50 -22 120 -22 102 0 141 18 182 85 37 61
44 122 40 389 l-3 225 -37 -74 c-85 -171 -253 -263 -482 -262 -270 1 -447 127
-556 398 -81 200 -109 390 -109 739 0 378 38 601 135 802 95 194 216 288 425
329 85 17 229 11 305 -12z"/>
<path d="M6915 7641 c-78 -19 -113 -72 -142 -217 -15 -76 -17 -146 -18 -489 0
-437 9 -524 61 -626 35 -70 107 -100 194 -80 136 31 166 178 157 790 -4 282
-9 381 -21 433 -30 130 -59 169 -136 187 -50 12 -53 12 -95 2z"/>
<path d="M8855 7654 c-81 -42 -105 -107 -113 -296 l-5 -138 212 0 211 0 0 83
c0 114 -16 212 -44 273 -19 41 -32 55 -68 73 -54 26 -148 28 -193 5z"/>
<path d="M8705 3626 c-39 -17 -60 -41 -84 -97 -47 -107 -71 -412 -52 -654 22
-263 67 -362 171 -380 67 -11 121 3 162 44 67 67 89 196 90 521 0 380 -35 522
-139 566 -40 17 -109 17 -148 0z"/>
</g>
</svg>
